<?xml version="1.0" encoding="UTF-8"?>
<svg id="Layer_1" xmlns="http://www.w3.org/2000/svg" version="1.1" viewBox="0 0 450 75">
  <!-- Generator: Adobe Illustrator 29.2.1, SVG Export Plug-In . SVG Version: 2.1.0 Build 116)  -->
  <g>
    <path d="M45.95,12.65h7.03v49.11h-7.03v-21.38h-27.6v21.38h-7.03V12.65h7.03v21.23h27.6V12.65Z"/>
    <path d="M87.91,11.95c7.59,0,13.91,2.4,18.95,7.21,5.05,4.8,7.57,10.83,7.57,18.07s-2.55,13.24-7.64,17.98-11.52,7.12-19.27,7.12-13.57-2.37-18.5-7.12c-4.93-4.75-7.4-10.69-7.4-17.84s2.48-13.41,7.45-18.21c4.97-4.8,11.24-7.21,18.83-7.21ZM88.19,18.63c-5.62,0-10.24,1.76-13.86,5.27s-5.43,8-5.43,13.46,1.81,9.7,5.44,13.22c3.63,3.52,8.17,5.27,13.63,5.27s10.05-1.79,13.72-5.38c3.66-3.59,5.5-8.05,5.5-13.4s-1.83-9.58-5.5-13.13c-3.67-3.55-8.17-5.33-13.5-5.33Z"/>
    <path d="M123.29,61.76V12.65h12.3c4.97,0,8.91,1.23,11.83,3.69,2.92,2.46,4.38,5.79,4.38,9.98,0,2.86-.71,5.33-2.14,7.42-1.43,2.09-3.48,3.64-6.15,4.68,1.57,1.03,3.1,2.44,4.6,4.22s3.61,4.89,6.33,9.32c1.71,2.79,3.08,4.89,4.11,6.29l2.6,3.52h-8.37l-2.14-3.24c-.07-.12-.21-.32-.42-.6l-1.37-1.94-2.18-3.59-2.35-3.83c-1.45-2.02-2.78-3.62-3.99-4.81s-2.3-2.05-3.27-2.58c-.97-.53-2.61-.79-4.91-.79h-1.83v21.38h-7.03ZM132.43,18.63h-2.11v15.5h2.67c3.56,0,6.01-.3,7.33-.91,1.32-.61,2.36-1.53,3.09-2.76s1.11-2.63,1.11-4.2-.41-2.95-1.23-4.2c-.82-1.25-1.97-2.14-3.46-2.65-1.49-.52-3.96-.77-7.4-.77Z"/>
    <path d="M205.63,12.65h6.57v49.11h-7.07V23.55l-15.1,18.98h-1.3l-15.28-18.98v38.22h-7.03V12.65h6.66l16.32,20.17,16.22-20.17Z"/>
    <path d="M246.88,11.95c7.59,0,13.91,2.4,18.95,7.21,5.05,4.8,7.57,10.83,7.57,18.07s-2.55,13.24-7.64,17.98-11.52,7.12-19.27,7.12-13.57-2.37-18.5-7.12c-4.93-4.75-7.4-10.69-7.4-17.84s2.48-13.41,7.45-18.21c4.96-4.8,11.24-7.21,18.83-7.21ZM247.17,18.63c-5.62,0-10.24,1.76-13.86,5.27s-5.43,8-5.43,13.46,1.81,9.7,5.44,13.22c3.63,3.52,8.17,5.27,13.63,5.27s10.05-1.79,13.72-5.38,5.5-8.05,5.5-13.4-1.83-9.58-5.5-13.13-8.17-5.33-13.5-5.33Z"/>
    <path d="M321.08,12.65h6.68v49.11h-6.05l-32.84-37.83v37.83h-6.61V12.65h5.7l33.12,38.15V12.65Z"/>
    <path d="M338.34,12.65h7.03v49.11h-7.03V12.65Z"/>
    <path d="M398.6,50.37v7.73c-5.16,2.81-11.11,4.22-17.86,4.22-5.48,0-10.14-1.1-13.96-3.3s-6.84-5.24-9.07-9.11-3.34-8.05-3.34-12.55c0-7.15,2.55-13.16,7.65-18.04,5.1-4.87,11.38-7.31,18.86-7.31,5.16,0,10.89,1.35,17.19,4.04v7.56c-5.74-3.28-11.36-4.92-16.84-4.92s-10.29,1.78-14.01,5.33-5.57,8-5.57,13.34,1.83,9.82,5.48,13.29,8.33,5.2,14.03,5.2,11.77-1.83,17.44-5.48Z"/>
  </g>
  <path d="M403.23,45.84c1.26,0,2.34.45,3.23,1.34.89.89,1.34,1.97,1.34,3.24s-.45,2.3-1.34,3.17-1.97,1.3-3.23,1.3-2.26-.44-3.15-1.3-1.34-1.92-1.34-3.17.43-2.35,1.3-3.24c.87-.89,1.93-1.34,3.19-1.34ZM402.68,19.1c1.26,0,2.34.45,3.23,1.34s1.34,1.97,1.34,3.23-.45,2.29-1.34,3.17c-.89.88-1.97,1.32-3.23,1.32s-2.26-.44-3.14-1.32c-.88-.88-1.32-1.94-1.32-3.17s.43-2.34,1.3-3.23c.87-.89,1.92-1.34,3.15-1.34Z"/>
  <path d="M412.66,12.21h27.84v6.26h-20.81v14.98h20.11v6.29h-20.11v15.26h21.48v6.26h-28.51V12.21Z"/>
</svg>